<?xml version="1.0" encoding="UTF-8"?>
<!DOCTYPE svg PUBLIC "-//W3C//DTD SVG 1.1//EN" "http://www.w3.org/Graphics/SVG/1.1/DTD/svg11.dtd">
<svg version="1.1" xmlns="http://www.w3.org/2000/svg" xmlns:xlink="http://www.w3.org/1999/xlink" x="0" y="0" width="400" height="400" viewBox="0, 0, 400, 400">
  <g id="Background">
    <rect x="0" y="0" width="400" height="400" fill="#000000" fill-opacity="0"/>
  </g>
  <g id="Layer_1">
    <path d="M40.5,40.5 L240.5,200.5" fill-opacity="0" stroke="#294270" stroke-width="5"/>
    <g>
      <path d="M215.5,200.5 z" fill="#8FC7ED"/>
      <path d="M215.5,200.5 z" fill-opacity="0" stroke="#294270" stroke-width="1"/>
    </g>
    <path d="M40.5,360.5 L40.5,40.5" fill-opacity="0" stroke="#294270" stroke-width="5"/>
    <path d="M40.5,40.5 L360.5,40.5" fill-opacity="0" stroke="#294270" stroke-width="5"/>
    <path d="M240.5,200.5 L360.5,40.5" fill-opacity="0" stroke="#F0801A" stroke-width="5"/>
    <path d="M40.5,360.5 L240.5,200.5" fill-opacity="0" stroke="#F0801A" stroke-width="5"/>
    <g>
      <path d="M40.5,375.5 C32.216,375.5 25.5,368.784 25.5,360.5 C25.5,352.216 32.216,345.5 40.5,345.5 C48.784,345.5 55.5,352.216 55.5,360.5 C55.5,368.784 48.784,375.5 40.5,375.5 z" fill="#8FC7ED"/>
      <path d="M40.5,375.5 C32.216,375.5 25.5,368.784 25.5,360.5 C25.5,352.216 32.216,345.5 40.5,345.5 C48.784,345.5 55.5,352.216 55.5,360.5 C55.5,368.784 48.784,375.5 40.5,375.5 z" fill-opacity="0" stroke="#294270" stroke-width="2"/>
    </g>
    <g>
      <path d="M360.5,55.5 C352.216,55.5 345.5,48.784 345.5,40.5 C345.5,32.216 352.216,25.5 360.5,25.5 C368.784,25.5 375.5,32.216 375.5,40.5 C375.5,48.784 368.784,55.5 360.5,55.5 z" fill="#8FC7ED"/>
      <path d="M360.5,55.5 C352.216,55.5 345.5,48.784 345.5,40.5 C345.5,32.216 352.216,25.5 360.5,25.5 C368.784,25.5 375.5,32.216 375.5,40.5 C375.5,48.784 368.784,55.5 360.5,55.5 z" fill-opacity="0" stroke="#294270" stroke-width="2"/>
    </g>
    <g>
      <path d="M240.5,215.5 C232.216,215.5 225.5,208.784 225.5,200.5 C225.5,192.216 232.216,185.5 240.5,185.5 C248.784,185.5 255.5,192.216 255.5,200.5 C255.5,208.784 248.784,215.5 240.5,215.5 z" fill="#8FC7ED"/>
      <path d="M240.5,215.5 C232.216,215.5 225.5,208.784 225.5,200.5 C225.5,192.216 232.216,185.5 240.5,185.5 C248.784,185.5 255.5,192.216 255.5,200.5 C255.5,208.784 248.784,215.5 240.5,215.5 z" fill-opacity="0" stroke="#294270" stroke-width="2"/>
    </g>
    <g>
      <path d="M40.5,55.5 C32.216,55.5 25.5,48.784 25.5,40.5 C25.5,32.216 32.216,25.5 40.5,25.5 C48.784,25.5 55.5,32.216 55.5,40.5 C55.5,48.784 48.784,55.5 40.5,55.5 z" fill="#8FC7ED"/>
      <path d="M40.5,55.5 C32.216,55.5 25.5,48.784 25.5,40.5 C25.5,32.216 32.216,25.5 40.5,25.5 C48.784,25.5 55.5,32.216 55.5,40.5 C55.5,48.784 48.784,55.5 40.5,55.5 z" fill-opacity="0" stroke="#294270" stroke-width="2"/>
    </g>
    <text transform="matrix(1, 0, 0, 1, 37, 350)"/>
    <text transform="matrix(1, 0, 0, 1, 40, 360)">
      <tspan x="-5.164" y="6.5" font-family="Roboto-Bold" font-size="18" fill="#294270">0</tspan>
    </text>
    <text transform="matrix(1, 0, 0, 1, 40, 40)">
      <tspan x="-5.164" y="6.5" font-family="Roboto-Bold" font-size="18" fill="#294270">1</tspan>
    </text>
    <text transform="matrix(1, 0, 0, 1, 240, 200)">
      <tspan x="-5.164" y="6.5" font-family="Roboto-Bold" font-size="18" fill="#294270">2</tspan>
    </text>
    <text transform="matrix(1, 0, 0, 1, 360, 40)">
      <tspan x="-5.164" y="6.5" font-family="Roboto-Bold" font-size="18" fill="#294270">3</tspan>
    </text>
  </g>
</svg>
